<svg width="200" height="120" viewBox="0 0 200 120" xmlns="http://www.w3.org/2000/svg">
  <!-- Basket base -->
  <ellipse cx="100" cy="105" rx="95" ry="15" fill="#8B4513" />
  
  <!-- Basket front -->
  <path d="M5 60 C5 90 195 90 195 60 L185 105 C185 105 15 105 15 105 Z" fill="#D2B48C" />
  
  <!-- Basket top rim -->
  <path d="M5 60 C5 45 195 45 195 60" fill="none" stroke="#8B4513" stroke-width="4" />
  
  <!-- Basket handle -->
  <path d="M40 55 C40 20 160 20 160 55" fill="none" stroke="#8B4513" stroke-width="4" />
  
  <!-- Basket weave details -->
  <path d="M15 65 L185 65" stroke="#A0522D" stroke-width="1.5" />
  <path d="M15 70 L185 70" stroke="#A0522D" stroke-width="1.5" />
  <path d="M15 75 L185 75" stroke="#A0522D" stroke-width="1.5" />
  <path d="M15 80 L185 80" stroke="#A0522D" stroke-width="1.5" />
  <path d="M15 85 L185 85" stroke="#A0522D" stroke-width="1.5" />
  <path d="M15 90 L185 90" stroke="#A0522D" stroke-width="1.5" />
  <path d="M15 95 L185 95" stroke="#A0522D" stroke-width="1.5" />
  <path d="M15 100 L185 100" stroke="#A0522D" stroke-width="1.5" />
  
  <!-- Counter circle placeholder (the actual number will be added in the component) -->
  <circle cx="100" cy="35" r="20" fill="white" stroke="#8B4513" stroke-width="3" />
</svg>
