<?xml version="1.0" encoding="UTF-8"?>
<svg version="1.1" xmlns="http://www.w3.org/2000/svg" xmlns:xlink="http://www.w3.org/1999/xlink" x="0px" y="0px" viewBox="0 0 512 512" style="enable-background:new 0 0 512 512;" xml:space="preserve">
<g>
  <!-- Тень -->
  <ellipse cx="256" cy="450" rx="140" ry="25" fill="#00000033"/>
  
  <!-- Иглы ежика (задний план) -->
  <path fill="#7C6251" d="M368.3,228.8c0,0,22.1-36.5,43.8-29.5c21.7,7,14.7,35.6,14.7,35.6s15.5-24.9,38.1-18.6
    c22.5,6.3,17.1,35.6,17.1,35.6s14-13.2,31.8-3.9c17.8,9.3,3.9,34.1,3.9,34.1s55.8,38,4.7,77.6c0,0,13.2,23.3-10.1,34.9
    c-23.3,11.6-38.8-7.8-38.8-7.8s6.2,27.2-19.4,34.9s-41.1-16.3-41.1-16.3s4.7,21.7-24.9,26.4c-29.5,4.7-36.5-23.3-36.5-23.3"/>
  <path fill="#7C6251" d="M143.7,228.8c0,0-22.1-36.5-43.8-29.5s-14.7,35.6-14.7,35.6s-15.5-24.9-38.1-18.6
    c-22.5,6.3-17.1,35.6-17.1,35.6s-14-13.2-31.8-3.9c-17.8,9.3-3.9,34.1-3.9,34.1s-55.8,38-4.7,77.6c0,0-13.2,23.3,10.1,34.9
    c23.3,11.6,38.8-7.8,38.8-7.8s-6.2,27.2,19.4,34.9s41.1-16.3,41.1-16.3s-4.7,21.7,24.9,26.4c29.5,4.7,36.5-23.3,36.5-23.3"/>
    
  <!-- Иглы ежика (средний план) -->
  <path fill="#8D7361" d="M336.5,198.4c0,0,18.6-38.8,40.3-31.8c21.7,7,14.7,35.6,14.7,35.6s15.5-24.9,38.1-18.6
    c22.5,6.3,17.1,35.6,17.1,35.6s14-13.2,31.8-3.9c17.8,9.3,3.9,34.1,3.9,34.1s8.5,40.3,3.9,48.1"/>
  <path fill="#8D7361" d="M175.5,198.4c0,0-18.6-38.8-40.3-31.8c-21.7,7-14.7,35.6-14.7,35.6s-15.5-24.9-38.1-18.6
    c-22.5,6.3-17.1,35.6-17.1,35.6s-14-13.2-31.8-3.9c-17.8,9.3-3.9,34.1-3.9,34.1s-8.5,40.3-3.9,48.1"/>
    
  <!-- Тело ежика -->
  <ellipse cx="256" cy="290" rx="130" ry="110" fill="#A86B38"/>
  
  <!-- Живот ежика -->
  <ellipse cx="256" cy="322" rx="80" ry="70" fill="#D6A883"/>
  
  <!-- Мордочка ежика -->
  <ellipse cx="256" cy="250" rx="60" ry="50" fill="#A86B38"/>
  
  <!-- Нос ежика -->
  <ellipse cx="256" cy="265" rx="12" ry="10" fill="#333333"/>
  
  <!-- Глаза -->
  <g>
    <ellipse cx="230" cy="240" rx="10" ry="12" fill="#FFFFFF"/>
    <ellipse cx="282" cy="240" rx="10" ry="12" fill="#FFFFFF"/>
    <ellipse cx="230" cy="242" rx="4" ry="6" fill="#333333"/>
    <ellipse cx="282" cy="242" rx="4" ry="6" fill="#333333"/>
    <ellipse cx="228" cy="238" rx="3" ry="3" fill="#FFFFFF"/>
    <ellipse cx="280" cy="238" rx="3" ry="3" fill="#FFFFFF"/>
  </g>
  
  <!-- Щеки -->
  <ellipse cx="220" cy="260" rx="12" ry="8" fill="#D67D56" opacity="0.6"/>
  <ellipse cx="292" cy="260" rx="12" ry="8" fill="#D67D56" opacity="0.6"/>
  
  <!-- Передние лапки -->
  <ellipse cx="210" cy="340" rx="20" ry="15" fill="#8D7361"/>
  <ellipse cx="302" cy="340" rx="20" ry="15" fill="#8D7361"/>

  <!-- Задние лапки -->
  <ellipse cx="190" cy="380" rx="25" ry="18" fill="#8D7361"/>
  <ellipse cx="322" cy="380" rx="25" ry="18" fill="#8D7361"/>
  
  <!-- Ушки -->
  <ellipse cx="225" cy="215" rx="12" ry="15" fill="#8D7361"/>
  <ellipse cx="287" cy="215" rx="12" ry="15" fill="#8D7361"/>
  
  <!-- Брови -->
  <path d="M225,230 Q230,225 235,232" fill="none" stroke="#333333" stroke-width="2"/>
  <path d="M287,230 Q282,225 277,232" fill="none" stroke="#333333" stroke-width="2"/>
  
  <!-- Улыбка -->
  <path d="M240,275 Q256,285 272,275" fill="none" stroke="#333333" stroke-width="2"/>
</g>
</svg>