<?xml version="1.0" encoding="UTF-8"?>
<svg width="100px" height="100px" viewBox="0 0 100 100" xmlns="http://www.w3.org/2000/svg">
  <!-- Orange body -->
  <circle cx="50" cy="55" r="40" fill="#FF9800"/>
  
  <!-- Orange texture -->
  <circle cx="50" cy="55" r="40" fill="#E65100" opacity="0.1"/>
  
  <!-- Orange stem and leaf -->
  <path d="M50,15 C50,12 52,10 54,8 C56,6 58,10 56,12 C54,14 52,15 50,15 Z" fill="#795548"/>
  <path d="M58,10 C62,8 68,10 70,15 C72,20 68,22 65,20 C62,18 60,14 58,10 Z" fill="#8BC34A"/>
  
  <!-- Orange texture dimples -->
  <circle cx="35" cy="40" r="2" fill="#E65100" opacity="0.2"/>
  <circle cx="60" cy="35" r="2" fill="#E65100" opacity="0.2"/>
  <circle cx="70" cy="55" r="2" fill="#E65100" opacity="0.2"/>
  <circle cx="45" cy="75" r="2" fill="#E65100" opacity="0.2"/>
  <circle cx="30" cy="60" r="2" fill="#E65100" opacity="0.2"/>
  
  <!-- Highlight -->
  <ellipse cx="40" cy="45" rx="15" ry="20" fill="#FFCC80" opacity="0.4"/>
</svg>