<?xml version="1.0" encoding="UTF-8"?>
<svg width="100px" height="100px" viewBox="0 0 100 100" xmlns="http://www.w3.org/2000/svg">
  <!-- Pear body -->
  <path d="M50,20 C45,20 35,25 32,40 C29,55 25,65 25,75 C25,90 35,95 50,95 C65,95 75,90 75,75 C75,65 71,55 68,40 C65,25 55,20 50,20 Z" fill="#D4E157"/>
  
  <!-- Pear top shadow -->
  <path d="M50,20 C45,20 35,25 32,40 C29,55 25,65 25,75 C25,90 35,95 50,95 C65,95 75,90 75,75 C75,65 71,55 68,40 C65,25 55,20 50,20 Z" fill="#AFB42B" opacity="0.3"/>
  
  <!-- Pear stem -->
  <path d="M50,20 C50,15 48,13 48,8 C48,5 50,5 52,5 C54,5 56,5 56,8 C56,13 54,15 54,20" fill="#8D6E63"/>
  
  <!-- Leaf -->
  <path d="M56,8 C60,5 65,8 65,15 C65,18 62,20 60,20 C58,18 58,14 56,13 Z" fill="#7CB342"/>
  
  <!-- Highlight -->
  <ellipse cx="40" cy="50" rx="8" ry="15" fill="#DCEDC8" opacity="0.4" transform="rotate(-15 40 50)"/>
</svg>