<?xml version="1.0" encoding="UTF-8"?>
<svg width="100px" height="100px" viewBox="0 0 100 100" xmlns="http://www.w3.org/2000/svg">
  <!-- Strawberry body -->
  <path d="M50,25 C30,25 20,40 20,60 C20,80 35,95 50,95 C65,95 80,80 80,60 C80,40 70,25 50,25 Z" fill="#F44336"/>
  
  <!-- Strawberry texture -->
  <circle cx="30" cy="40" r="2" fill="#FFEB3B"/>
  <circle cx="40" cy="45" r="2" fill="#FFEB3B"/>
  <circle cx="60" cy="45" r="2" fill="#FFEB3B"/>
  <circle cx="70" cy="50" r="2" fill="#FFEB3B"/>
  <circle cx="35" cy="60" r="2" fill="#FFEB3B"/>
  <circle cx="50" cy="55" r="2" fill="#FFEB3B"/>
  <circle cx="65" cy="60" r="2" fill="#FFEB3B"/>
  <circle cx="30" cy="75" r="2" fill="#FFEB3B"/>
  <circle cx="45" cy="70" r="2" fill="#FFEB3B"/>
  <circle cx="60" cy="75" r="2" fill="#FFEB3B"/>
  <circle cx="70" cy="65" r="2" fill="#FFEB3B"/>
  <circle cx="42" cy="85" r="2" fill="#FFEB3B"/>
  <circle cx="55" cy="80" r="2" fill="#FFEB3B"/>
  
  <!-- Strawberry top -->
  <path d="M50,25 C45,15 55,15 50,5 C60,8 70,15 65,25 Z" fill="#4CAF50"/>
  <path d="M50,25 C55,15 45,15 50,5 C40,8 30,15 35,25 Z" fill="#4CAF50"/>
  
  <!-- Highlight -->
  <path d="M40,40 C35,50 35,70 40,80 C45,85 55,85 60,80 C65,70 65,50 60,40 C55,35 45,35 40,40 Z" fill="#FFCDD2" opacity="0.3"/>
</svg>