<?xml version="1.0" encoding="UTF-8"?>
<svg version="1.1" xmlns="http://www.w3.org/2000/svg" xmlns:xlink="http://www.w3.org/1999/xlink" x="0px" y="0px" viewBox="0 0 512 512" style="enable-background:new 0 0 512 512;" xml:space="preserve">
<g>
  <path style="fill:#7C6251;" d="M198.337,375.263c-0.709-2.622-2.64-4.743-5.187-5.691l-52.076-19.409
    c-4.333-1.614-9.151,0.565-10.803,4.88l-10.85,28.343c-4.257,0.826-10.434,2.471-16.589,5.6
    c-10.902,5.543-14.661,12.748-16.046,17.626c-2.24,7.874,0.248,14.617,2.56,19.023c0.688,1.313,1.461,2.59,2.28,3.831
    c2.133,3.234,4.774,6.069,7.623,8.502c10.76,9.199,25.336,13.089,39.211,10.676c6.908-1.201,13.541-3.992,19.337-8.199
    l63.9-46.406C231.125,389.146,201.694,388.409,198.337,375.263z"/>
  <path style="fill:#A86B38;" d="M341.333,173.333C341.333,77.614,256,0,256,0S170.667,77.614,170.667,173.333
    c0,66.992,85.333,149.334,85.333,149.334S341.333,240.325,341.333,173.333z"/>
  <path style="fill:#7C6251;" d="M313.662,375.263c0.709-2.622,2.64-4.743,5.187-5.691l52.076-19.409
    c4.333-1.614,9.151,0.565,10.803,4.88l10.85,28.343c4.257,0.826,10.434,2.471,16.589,5.6
    c10.902,5.543,14.661,12.748,16.046,17.626c2.24,7.874-0.248,14.617-2.56,19.023c-0.688,1.313-1.461,2.59-2.28,3.831
    c-2.133,3.234-4.774,6.069-7.623,8.502c-10.76,9.199-25.336,13.089-39.211,10.676c-6.908-1.201-13.541-3.992-19.337-8.199
    l-63.9-46.406C280.875,389.146,310.306,388.409,313.662,375.263z"/>
  <path style="fill:#623F33;" d="M256,0c0,0-5.333,37.615-5.333,85.333S256,256,256,256s5.333-118.49,5.333-170.667
    S256,0,256,0z"/>
  <circle style="fill:#E59D8D;" cx="202.666" cy="117.333" r="32"/>
  <circle style="fill:#E59D8D;" cx="309.334" cy="117.333" r="32"/>
  <circle style="fill:#FFFFFF;" cx="202.667" cy="112" r="10.667"/>
  <circle style="fill:#FFFFFF;" cx="309.334" cy="112" r="10.667"/>
  <path style="fill:#7A4930;" d="M284.444,276.014c-0.183-0.354-4.581-8.685-14.194-17.28c-5.444-4.873-11.207-8.789-17.095-11.651
    c-6.599-3.214-13.038-4.848-19.156-4.848s-12.557,1.634-19.156,4.848c-5.887,2.862-11.65,6.778-17.095,11.651
    c-9.613,8.595-14.01,16.926-14.194,17.28c-0.959,1.856-0.959,4.071,0,5.926c0.183,0.354,4.581,8.685,14.194,17.28
    c5.444,4.873,11.207,8.789,17.095,11.651c6.599,3.214,13.038,4.848,19.156,4.848s12.557-1.634,19.156-4.848
    c5.887-2.862,11.65-6.779,17.095-11.651c9.613-8.595,14.01-16.926,14.194-17.28C285.403,280.084,285.403,277.87,284.444,276.014z"
    />
  <path style="fill:#623F33;" d="M256,469.334c38.819,0,42.667-29.44,42.667-29.44l-21.333-10.667
    c0,0-0.192,10.774-21.333,10.774s-21.333-10.774-21.333-10.774l-21.333,10.667C213.333,439.893,217.181,469.334,256,469.334z"
    />
</g>
</svg>