<?xml version="1.0" encoding="UTF-8"?>
<svg width="800" height="600" viewBox="0 0 800 600" xmlns="http://www.w3.org/2000/svg">
  <!-- Ground shadow ellipse -->
  <ellipse cx="400" cy="510" rx="160" ry="40" fill="#2E4112" opacity="0.2" />
  
  <!-- Tree trunk (isometric style) -->
  <path d="M400 300 L385 500 L415 500 L400 300" fill="#8D5524" />
  <path d="M400 300 L385 500 L370 490 L385 290" fill="#6D4017" />
  <path d="M400 300 L415 500 L430 490 L415 290" fill="#A06328" />
  
  <!-- Tree branches (isometric style) -->
  <path d="M400 300 L320 230 L290 220" stroke="#8D5524" stroke-width="8" fill="none" />
  <path d="M400 300 L480 230 L510 220" stroke="#A06328" stroke-width="8" fill="none" />
  <path d="M400 300 L370 200 L350 170" stroke="#8D5524" stroke-width="8" fill="none" />
  <path d="M400 300 L430 200 L450 170" stroke="#A06328" stroke-width="8" fill="none" />
  
  <!-- Smaller branches -->
  <path d="M290 220 L270 240" stroke="#8D5524" stroke-width="4" fill="none" />
  <path d="M290 220 L270 210" stroke="#6D4017" stroke-width="4" fill="none" />
  <path d="M350 170 L330 160" stroke="#8D5524" stroke-width="4" fill="none" />
  <path d="M350 170 L340 150" stroke="#8D5524" stroke-width="4" fill="none" />
  <path d="M510 220 L530 240" stroke="#A06328" stroke-width="4" fill="none" />
  <path d="M510 220 L530 210" stroke="#A06328" stroke-width="4" fill="none" />
  <path d="M450 170 L470 160" stroke="#A06328" stroke-width="4" fill="none" />
  <path d="M450 170 L460 150" stroke="#A06328" stroke-width="4" fill="none" />
  
  <!-- Foliage base spheres (bottom layer, darker) -->
  <ellipse cx="290" cy="220" rx="55" ry="45" fill="#1F5924" />
  <ellipse cx="510" cy="220" rx="55" ry="45" fill="#1F5924" />
  <ellipse cx="350" cy="170" rx="65" ry="55" fill="#1F5924" />
  <ellipse cx="450" cy="170" rx="65" ry="55" fill="#1F5924" />
  <ellipse cx="400" cy="150" rx="75" ry="65" fill="#1F5924" />
  
  <!-- Middle layer foliage (medium green) -->
  <ellipse cx="280" cy="210" rx="50" ry="40" fill="#2D7A32" />
  <ellipse cx="520" cy="210" rx="50" ry="40" fill="#2D7A32" />
  <ellipse cx="345" cy="160" rx="58" ry="48" fill="#2D7A32" />
  <ellipse cx="455" cy="160" rx="58" ry="48" fill="#2D7A32" />
  <ellipse cx="400" cy="140" rx="68" ry="58" fill="#2D7A32" />
  
  <!-- Top layer foliage (lighter green) -->
  <ellipse cx="275" cy="200" rx="42" ry="33" fill="#4CA658" />
  <ellipse cx="525" cy="200" rx="42" ry="33" fill="#4CA658" />
  <ellipse cx="340" cy="150" rx="50" ry="40" fill="#4CA658" />
  <ellipse cx="460" cy="150" rx="50" ry="40" fill="#4CA658" />
  <ellipse cx="400" cy="130" rx="60" ry="50" fill="#4CA658" />
  
  <!-- Highlights for 3D effect -->
  <ellipse cx="270" cy="195" rx="25" ry="18" fill="#64CF73" opacity="0.6" />
  <ellipse cx="525" cy="195" rx="25" ry="18" fill="#64CF73" opacity="0.6" />
  <ellipse cx="335" cy="145" rx="30" ry="22" fill="#64CF73" opacity="0.6" />
  <ellipse cx="465" cy="145" rx="30" ry="22" fill="#64CF73" opacity="0.6" />
  <ellipse cx="395" cy="125" rx="35" ry="28" fill="#64CF73" opacity="0.6" />
</svg>